# xmcd
#
# Track frame offsets:
#	150
#	13549
#	22214
#	31551
#	47183
#	59947
#	75468
#	87621
#	97980
#	112934
#	125234
#	135806
#	146371
#	166751
#	178250
#	191152
#	204918
#	222107
#	231290
#
# Disc length: 3261 seconds
#
# Revision: 0
# Processed by: cddbd v1.5.2PL0 Copyright (c) Steve Scherf et al.
# Submitted via: EZCDAudioConverter 2.8.0.1
#
DISCID=050cbb13
DTITLE=Аида Ведищева - Лучшие песни CD2
DYEAR=2015
DGENRE=Советская песня
TTITLE0=Песенка о медведях
TTITLE1=Всё равно ты будешь мой
TTITLE2=Колыбельная медведицы
TTITLE3=Я буду ждать тебя
TTITLE4=Человек придумал песню
TTITLE5=Вальс Не Уйти
TTITLE6=Песенка вполголоса
TTITLE7=Куда же вы спешите
TTITLE8=Ах, Наташа
TTITLE9=Старый сад
TTITLE10=Гуси, гуси
TTITLE11=Колдунья
TTITLE12=Две души
TTITLE13=Моё счастье море унесло
TTITLE14=Будешь ты
TTITLE15=Разве тот мужчина
TTITLE16=Твоя вина
TTITLE17=Рассвет
TTITLE18=Откровенная песня
EXTD=
EXTT0=
EXTT1=
EXTT2=
EXTT3=
EXTT4=
EXTT5=
EXTT6=
EXTT7=
EXTT8=
EXTT9=
EXTT10=
EXTT11=
EXTT12=
EXTT13=
EXTT14=
EXTT15=
EXTT16=
EXTT17=
EXTT18=
PLAYORDER=
